<svg id="Layer_1" data-name="Layer 1" xmlns="http://www.w3.org/2000/svg" viewBox="0 0 24 28"><defs><style>.cls-1{fill:#ffde00;}.cls-2{fill:#4d4d4d;}</style></defs><title>Artboard 1</title><path class="cls-1" d="M18.14,24.67l-8,1.33a.73.73,0,0,1-.85-.72v-23l8.84,1.07Z"/><polygon class="cls-2" points="11.34 9.21 7.79 9.06 7.8 4.7 11.34 4.96 11.34 9.21"/><polygon class="cls-2" points="7.79 13.6 4.16 13.67 4.16 8.96 7.79 9.06 7.79 13.6"/><polygon class="cls-2" points="10.99 19.07 8.22 19.38 8.22 15.85 10.99 15.68 10.99 19.07"/><polygon class="cls-2" points="3.19 8.38 0.69 8.32 0.69 5.53 3.19 5.7 3.19 8.38"/><path class="cls-2" d="M11.34,1.55V5l3.19.27v4.1l-3.19-.12V26.45A.55.55,0,0,0,12,27l10.79-1.82a.64.64,0,0,0,.53-.63V3.1a.64.64,0,0,0-.55-.63L12,1a.55.55,0,0,0-.63.55M17.72,13.5l-3.19,0V9.35l3.19.1Z"/></svg>