<svg id="Layer_1" data-name="Layer 1" xmlns="http://www.w3.org/2000/svg" viewBox="0 0 140 10"><defs><style>.cls-1{fill:#fff;}</style></defs><title>Artboard 1</title><path class="cls-1" d="M16.72,9.53V6.74H11.63V9.53H10.46V.93c0-.67.26-.93.93-.93H17c.67,0,.93.26.93.93v8.6Zm-5.09-4h5.09V1.17H11.63Z"/><rect class="cls-1" x="19.92" y="0.01" width="1.17" height="9.53"/><path class="cls-1" d="M29.92,9.53,28.17,5.36H24.29V9.53H23.11V0h1.17V4.18h2.1L27.85,0H29L27.53,4.13l.57.06a1.24,1.24,0,0,1,.72.3,2.08,2.08,0,0,1,.51.8L31,9.53Z"/><path class="cls-1" d="M39.73,9.53,38,5.36H34.1V9.53H32.93V0H34.1V4.18h2.1L37.67,0h1.12L37.34,4.13l.57.06a1.24,1.24,0,0,1,.72.3,2.08,2.08,0,0,1,.51.8l1.7,4.25Z"/><path class="cls-1" d="M48.86,9.53V6.74H43.77V9.53H42.6V.93c0-.67.26-.93.94-.93H49.1c.67,0,.93.26.93.93v8.6Zm-5.09-4h5.09V1.17H43.77Z"/><polygon class="cls-1" points="54.81 9.53 54.81 1.18 52.03 1.18 52.03 0.01 58.77 0.01 58.77 1.18 55.99 1.18 55.99 9.53 54.81 9.53"/><rect class="cls-1" x="60.79" y="0.01" width="1.17" height="9.53"/><path class="cls-1" d="M64.92,9.53c-.67,0-.94-.26-.94-.94V.94c0-.67.26-.94.94-.94H70V1.18H65.16v3h2.61l-.39,1.17H65.16v3H70V9.53Z"/><polygon class="cls-1" points="74.84 9.53 74.84 1.18 72.05 1.18 72.05 0.01 78.8 0.01 78.8 1.18 76.01 1.18 76.01 9.53 74.84 9.53"/><path class="cls-1" d="M81.75,9.53c-.67,0-.94-.26-.94-.93V.94c0-.67.26-.94.94-.94h5.57c.67,0,.93.26.93.94V8.6c0,.67-.26.93-.93.93ZM82,8.36h5.09V1.18H82Z"/><rect class="cls-1" x="90.28" y="0.01" width="1.17" height="9.53"/><path class="cls-1" d="M100.28,9.53,98.53,5.36H94.64V9.53H93.47V0h1.17V4.18h2.1L98.21,0h1.12L97.88,4.13l.57.06a1.23,1.23,0,0,1,.72.3,2.07,2.07,0,0,1,.51.8l1.7,4.25Z"/><path class="cls-1" d="M109.95,9.53,108.2,5.36h-3.89V9.53h-1.17V0h1.17V4.18h2.1L107.88,0H109l-1.45,4.13.57.06a1.23,1.23,0,0,1,.72.3,2.08,2.08,0,0,1,.51.8l1.7,4.25Z"/><path class="cls-1" d="M113.72,9.53c-.67,0-.93-.26-.93-.94V0H114V8.36h5.09V0h1.17V8.6c0,.67-.26.94-.93.94Z"/><path class="cls-1" d="M128.52,9.53V1.17h-5.09V9.53h-1.17V.93c0-.67.26-.93.93-.93h5.57c.67,0,.93.26.93.93v8.6Z"/><path class="cls-1" d="M137.83,9.53V6.74h-5.09V9.53h-1.17V.93c0-.67.26-.93.94-.93h5.57c.67,0,.93.26.93.93v8.6Zm-5.09-4h5.09V1.17h-5.09Z"/><path class="cls-1" d="M7.5,0H1.94C1.26,0,1,.27,1,.94V9.53H2.17V7h0V5.53h0V1.18H7.26V5.58H3.64L2.88,6.75H7.5c.67,0,.93-.26.93-.93V.94C8.44.27,8.18,0,7.5,0"/></svg>