<?xml version="1.0" encoding="utf-8"?>
<!-- Generator: Adobe Illustrator 21.1.0, SVG Export Plug-In . SVG Version: 6.00 Build 0)  -->
<svg version="1.1" id="Layer_1" xmlns="http://www.w3.org/2000/svg" xmlns:xlink="http://www.w3.org/1999/xlink" x="0px" y="0px"
	 viewBox="0 0 64 64" style="enable-background:new 0 0 64 64;" xml:space="preserve">
<style type="text/css">
	.st0{fill:#FFFFFF;}
</style>
<path class="st0" d="M60.5,0H3.5C1.6,0,0,1.6,0,3.5v56.9c0,2,1.6,3.5,3.5,3.5h30.7V39.2h-8.3v-9.7h8.3v-7.1c0-8.3,5-12.8,12.4-12.8
	c3.5,0,6.6,0.3,7.5,0.4v8.6l-5.1,0c-4,0-4.8,1.9-4.8,4.7v6.2h9.6l-1.2,9.7h-8.3V64h16.3c2,0,3.5-1.6,3.5-3.5V3.5
	C64,1.6,62.4,0,60.5,0z"/>
</svg>
