<svg id="Layer_1" data-name="Layer 1" xmlns="http://www.w3.org/2000/svg" viewBox="0 0 372 62"><defs><style>.cls-1{fill:#fff;}.cls-2{fill:#ffdc00;}.cls-3{fill:#4d4d4d;}</style></defs><title>Artboard 1</title><path class="cls-1" d="M108.94,43.79v-6H98v6H95.52V25.36c0-1.44.56-2,2-2h11.94c1.44,0,2,.56,2,2V43.79ZM98,35.29h10.91V25.87H98Z"/><rect class="cls-1" x="115.79" y="23.37" width="2.52" height="20.42"/><path class="cls-1" d="M137.23,43.79l-3.75-9h-8.33v9h-2.51V23.37h2.51v9h4.51l3.13-9h2.4l-3.1,8.85,1.23.13a2.65,2.65,0,0,1,1.55.63,4.45,4.45,0,0,1,1.09,1.7l3.64,9.11Z"/><path class="cls-1" d="M158.27,43.79l-3.75-9h-8.33v9h-2.51V23.37h2.51v9h4.51l3.13-9h2.4l-3.1,8.85,1.23.13a2.65,2.65,0,0,1,1.55.63,4.45,4.45,0,0,1,1.09,1.7l3.64,9.11Z"/><path class="cls-1" d="M177.84,43.79v-6H166.93v6h-2.51V25.36c0-1.44.56-2,2-2h11.94c1.44,0,2,.56,2,2V43.79Zm-10.91-8.5h10.91V25.87H166.93Z"/><polygon class="cls-1" points="190.59 43.79 190.59 25.88 184.62 25.88 184.62 23.37 199.08 23.37 199.08 25.88 193.11 25.88 193.11 43.79 190.59 43.79"/><rect class="cls-1" x="203.41" y="23.37" width="2.52" height="20.42"/><path class="cls-1" d="M212.26,43.79c-1.44,0-2-.56-2-2V25.37c0-1.44.56-2,2-2h11v2.52H212.77v6.44h5.59l-.84,2.52h-4.75v6.44h10.45v2.52Z"/><polygon class="cls-1" points="233.52 43.79 233.52 25.88 227.55 25.88 227.55 23.37 242 23.37 242 25.88 236.04 25.88 236.04 43.79 233.52 43.79"/><path class="cls-1" d="M248.34,43.79c-1.44,0-2-.56-2-2V25.37c0-1.44.56-2,2-2h11.94c1.44,0,2,.56,2,2V41.79c0,1.44-.56,2-2,2Zm.51-2.52h10.91V25.88H248.85Z"/><rect class="cls-1" x="266.62" y="23.37" width="2.51" height="20.42"/><path class="cls-1" d="M288.06,43.79l-3.75-9H276v9h-2.52V23.37H276v9h4.51l3.13-9H286l-3.1,8.85,1.23.13a2.64,2.64,0,0,1,1.54.63,4.44,4.44,0,0,1,1.09,1.71l3.64,9.1Z"/><path class="cls-1" d="M308.79,43.79l-3.75-9h-8.33v9h-2.52V23.37h2.52v9h4.51l3.13-9h2.4l-3.1,8.85,1.23.13a2.64,2.64,0,0,1,1.54.64,4.45,4.45,0,0,1,1.09,1.7l3.64,9.1Z"/><path class="cls-1" d="M316.87,43.79c-1.44,0-2-.56-2-2V23.37h2.52V41.27H328.3V23.37h2.5V41.79c0,1.44-.56,2-2,2Z"/><path class="cls-1" d="M348.59,43.79l0-17.92H337.66V43.79h-2.52V25.36c0-1.44.56-2,2-2h11.94c1.44,0,2,.56,2,2V43.79Z"/><path class="cls-1" d="M368.55,43.79v-6H357.64v6h-2.52V25.36c0-1.44.56-2,2-2h11.94c1.44,0,2,.56,2,2V43.79Zm-10.92-8.5h10.92V25.87H357.63Z"/><path class="cls-1" d="M89.18,23.37H77.24c-1.44,0-2,.56-2,2V43.79h2.52V38.45h0V35.22h0V25.88H88.67v9.42H80.9l-1.63,2.51h9.9c1.44,0,2-.56,2-2V25.37c0-1.44-.56-2-2-2"/><path class="cls-2" d="M40.94,55.38l-18.25,3a1.68,1.68,0,0,1-2-1.65V4.22l20.2,2.45Z"/><polygon class="cls-3" points="25.4 20.04 17.29 19.69 17.31 9.74 25.4 10.33 25.4 20.04"/><polygon class="cls-3" points="17.28 30.07 8.98 30.23 8.98 19.47 17.29 19.69 17.28 30.07"/><polygon class="cls-3" points="24.61 42.58 18.28 43.28 18.28 35.23 24.61 34.82 24.61 42.58"/><polygon class="cls-3" points="6.76 18.14 1.06 18 1.06 11.64 6.76 12.02 6.76 18.14"/><path class="cls-3" d="M25.4,2.54v7.79l7.3.61v9.38L25.4,20v39.4a1.27,1.27,0,0,0,1.48,1.25l24.66-4.15a1.46,1.46,0,0,0,1.22-1.44v-49A1.46,1.46,0,0,0,51.5,4.62L26.84,1.28A1.27,1.27,0,0,0,25.4,2.54M40,29.85l-7.3.09V20.35l7.3.22Z"/></svg>