<?xml version="1.0" encoding="utf-8"?>
<!-- Generator: Adobe Illustrator 21.1.0, SVG Export Plug-In . SVG Version: 6.00 Build 0)  -->
<svg version="1.1" id="Layer_1" xmlns="http://www.w3.org/2000/svg" xmlns:xlink="http://www.w3.org/1999/xlink" x="0px" y="0px"
	 viewBox="0 0 64 64" style="enable-background:new 0 0 64 64;" xml:space="preserve">
<style type="text/css">
	.st0{fill:#FFFFFF;}
</style>
<g>
	<path class="st0" d="M32,2.7c16.2,0,29.3,13.2,29.3,29.3S48.2,61.3,32,61.3S2.7,48.2,2.7,32S15.8,2.7,32,2.7 M32,0
		C14.3,0,0,14.3,0,32s14.3,32,32,32s32-14.3,32-32S49.7,0,32,0z"/>
	<circle class="st0" cx="18.2" cy="45" r="5.8"/>
	<path class="st0" d="M14.7,32.1c0.2,0,0.3,0,0.5,0c4.3,0,8.3,1.8,11.2,4.6c2.9,2.9,4.7,6.8,4.7,11.2c0,0.1,0,0.1,0,0.2
		c0,1.4,1.1,2.6,2.5,2.6c1.4,0,2.6-1.1,2.6-2.5c0-0.1,0-0.2,0-0.3c0-5.8-2.4-11.1-6.3-14.8c-3.8-3.8-9.1-6.1-14.8-6.1
		c-0.2,0-0.4,0-0.6,0c-1.4,0-2.5,1.2-2.5,2.6C12.1,31.1,13.3,32.2,14.7,32.1L14.7,32.1z"/>
	<path class="st0" d="M14.6,19.7c0.2,0,0.5,0,0.7,0c8.4,0,15.4,2.8,20.3,7.5c2.5,2.4,4.4,5.2,5.7,8.5c1.3,3.3,2.1,7,2.1,11.1
		c0,0.4,0,0.8,0,1.3c-0.1,1.4,1,2.5,2.4,2.6c1.4,0.1,2.5-1,2.6-2.4c0-0.5,0-1,0-1.4c0-4.7-0.8-9-2.4-13c-2.4-5.9-6.5-10.7-11.8-14
		c-5.3-3.3-11.7-5.1-18.9-5.1c-0.3,0-0.5,0-0.8,0c-1.4,0-2.5,1.2-2.4,2.5C12.1,18.6,13.3,19.7,14.6,19.7L14.6,19.7z"/>
</g>
</svg>
