<svg xmlns="http://www.w3.org/2000/svg" viewBox="0 0 27.018 31.201">
  <defs>
    <style>
      .cls-1 {
        fill: #393939;
      }

      .cls-2 {
        fill: none;
        stroke: #ffd622;
        stroke-width: 1.057px;
        stroke-dasharray: 2 1;
      }
    </style>
  </defs>
  <g id="suomi_w_nobg" transform="translate(0.528)">
    <g id="g1635-6-3" transform="translate(4.056 0)">
      <g id="g987-4-6-9-2-2-9-4-7-5-44" transform="translate(0.237 0.094)">
        <path id="path826-9-6-7-27-7-2-9-60-5-8-3-7" d="M-2296.281,1008.78l-1.613-2.13-.194-3.485-1.033-.194-.129-1.936.387-2.711-1.355-.581-.065-1.936,1.033-.129-.065-1.678-1.678-1.743.645-1.226.194-2.388-.9-1.162-2.194.064-.451,3.1-.839,1.42-1.485-.452-1.1-.71-1.033-1.226-1.549-.064.064,1.549,2.259,1.42.968.774.258,6.647,2,1.613-.451,1.355-5.679,5.55-.323,7.809,2.775,2.259,6.389-2.13,4.711-5.744Z" transform="translate(2313.903 -987.483)"/>
        <path id="path828-1-3-4-0-7-1-9-0-9-0-9-7" d="M-2314.091,1017.7l1.742.065-.258,1.355h-1.485Z" transform="translate(2314.091 -989.112)"/>
      </g>
      <path id="path826-9-1-4-6-8-3-2-9-2-3" class="cls-1" d="M-2033.548,1714.657l-1.614-2.13-.194-3.485-1.032-.194-.129-1.936.387-2.71-1.355-.581-.065-1.936,1.033-.129-.065-1.678-1.678-1.743.645-1.226.194-2.388-.9-1.162-2.194.065-.452,3.1-.839,1.42-1.484-.452-1.1-.71-1.033-1.226-1.549-.064.064,1.549,2.259,1.42.968.774.258,6.648,2,1.613-.452,1.355-5.679,5.55-.323,7.809,2.775,2.259,6.389-2.13,4.711-5.744Z" transform="translate(2051.166 -1693.36)"/>
      <path id="path828-1-2-6-2-0-56-1-0-5-0" class="cls-1" d="M-2051.353,1723.58l1.742.065-.258,1.355h-1.484Z" transform="translate(2051.353 -1694.989)"/>
    </g>
    <rect id="rect848-7-2-8-7-5-1-9-3-1-3-06-21-9-6-1" class="cls-2" width="25.961" height="15.961" transform="translate(0 7.624)"/>
  </g>
</svg>
